<svg width="90" height="29" viewBox="0 0 90 29" fill="none" xmlns="http://www.w3.org/2000/svg">
<path d="M0.417307 29V28.2559L3.67711 27.7244L3.67711 1.92944L0.417307 1.43338V0.653866L10.8345 0.653866V1.43338L7.57471 1.92944L7.57471 28.1496H18.1691L21.0746 20.3544H22.0312L22.0312 29L0.417307 29ZM32.8313 28.2559L36.0911 27.7244L36.0911 1.92944L32.8313 1.43338V0.653866L43.6382 0.653866C46.1894 0.653866 48.2209 0.890084 49.7327 1.36252C51.2445 1.83495 52.3429 2.55542 53.0279 3.52391C53.7129 4.46878 54.0554 5.72074 54.0554 7.27977C54.0554 10.6813 51.9059 12.8545 47.6067 13.7994V13.9765C50.2287 14.3309 52.2602 15.1104 53.7011 16.3151C55.1657 17.5198 55.8979 19.197 55.8979 21.3465C55.8979 23.9449 54.9413 25.8701 53.0279 27.1221C51.1382 28.374 48.5752 29 45.339 29H32.8313V28.2559ZM43.9217 13.6931C45.8114 13.6931 47.2642 13.1616 48.2799 12.0986C49.2957 11.0356 49.8035 9.52384 49.8035 7.56324V7.35064C49.8035 3.47667 47.7484 1.53968 43.6382 1.53968L39.9887 1.53968V13.6931H43.9217ZM45.339 28.1496C47.3469 28.1496 48.9059 27.5709 50.0161 26.4134C51.1263 25.2323 51.6815 23.5552 51.6815 21.382V20.9922C51.6815 18.8426 51.1263 17.2364 50.0161 16.1734C48.9295 15.1104 47.3705 14.5789 45.339 14.5789H39.9887L39.9887 28.1496H45.339ZM67.7366 28.2559L70.9964 27.7244V1.92944L67.7366 1.43338V0.653866L78.8625 0.653866C82.3585 0.653866 84.9569 1.39795 86.6576 2.88612C88.3584 4.3743 89.2088 6.52388 89.2088 9.33487C89.2088 12.1459 88.3584 14.2954 86.6576 15.7836C84.9569 17.2718 82.3585 18.0159 78.8625 18.0159L74.894 18.0159V27.7244L78.1538 28.2559V29H67.7366V28.2559ZM78.3664 17.1655C82.7364 17.1655 84.9214 14.7915 84.9214 10.0435V8.62621C84.9214 3.90186 82.7364 1.53968 78.3664 1.53968H74.894V17.1655L78.3664 17.1655Z" fill="#3D3D45"/>
</svg>
