<svg width="89" height="29" viewBox="0 0 89 29" fill="none" xmlns="http://www.w3.org/2000/svg">
<path d="M0.417307 29V28.2559L3.67711 27.7244L3.67711 1.92944L0.417307 1.43338V0.653866L10.8345 0.653866V1.43338L7.57471 1.92944L7.57471 28.1496H18.1691L21.0746 20.3544H22.0312L22.0312 29L0.417307 29ZM32.8313 28.2559L36.0911 27.7244L36.0911 1.92944L32.8313 1.43338V0.653866L43.9571 0.653866C47.4532 0.653866 50.0516 1.39795 51.7523 2.88612C53.4531 4.3743 54.3035 6.52388 54.3035 9.33487C54.3035 12.1459 53.4531 14.2954 51.7523 15.7836C50.0516 17.2718 47.4532 18.0159 43.9571 18.0159H39.9887V27.7244L43.2485 28.2559V29H32.8313V28.2559ZM43.4611 17.1655C47.8311 17.1655 50.0161 14.7915 50.0161 10.0435V8.62621C50.0161 3.90186 47.8311 1.53968 43.4611 1.53968L39.9887 1.53968L39.9887 17.1655H43.4611ZM65.5567 28.2559L68.8165 27.7244V1.92944L65.5567 1.43338V0.653866L76.3636 0.653866C78.9148 0.653866 80.9463 0.890084 82.458 1.36252C83.9698 1.83495 85.0683 2.55542 85.7533 3.52391C86.4383 4.46878 86.7808 5.72074 86.7808 7.27977C86.7808 10.6813 84.6313 12.8545 80.3321 13.7994V13.9765C82.9541 14.3309 84.9856 15.1104 86.4265 16.3151C87.8911 17.5198 88.6233 19.197 88.6233 21.3465C88.6233 23.9449 87.6667 25.8701 85.7533 27.1221C83.8635 28.374 81.3006 29 78.0644 29H65.5567V28.2559ZM76.6471 13.6931C78.5368 13.6931 79.9896 13.1616 81.0053 12.0986C82.021 11.0356 82.5289 9.52384 82.5289 7.56324V7.35064C82.5289 3.47667 80.4738 1.53968 76.3636 1.53968L72.7141 1.53968V13.6931L76.6471 13.6931ZM78.0644 28.1496C80.0722 28.1496 81.6313 27.5709 82.7415 26.4134C83.8517 25.2323 84.4068 23.5552 84.4068 21.382V20.9922C84.4068 18.8426 83.8517 17.2364 82.7415 16.1734C81.6549 15.1104 80.0959 14.5789 78.0644 14.5789L72.7141 14.5789V28.1496H78.0644Z" fill="#3D3D45"/>
</svg>
